<svg width="48" height="48" viewBox="0 0 48 48" fill="none" xmlns="http://www.w3.org/2000/svg">
<path fill-rule="evenodd" clip-rule="evenodd" d="M26.5109 4C27.4785 4 28.377 4.21665 29.1784 4.67461C29.8631 5.06587 30.6404 5.60468 31.2151 6.40924L31.2027 6.41808L31.214 6.4332L33.5456 9.45545L34.3666 10.5502C36.8976 13.8928 36.8971 18.5471 34.3652 21.8893L29.8573 27.7084L36.8062 36.6521C37.4494 37.4799 37.3443 38.6639 36.5652 39.3654L32.4993 43.0268C31.6387 43.8018 30.3019 43.6861 29.5872 42.7749L23.7965 35.3917L17.9523 42.843C17.2787 43.7019 16.0409 43.862 15.1709 43.2029L10.7925 39.8859C9.90255 39.2118 9.73685 37.9398 10.4243 37.0602L17.7382 27.7016L13.234 21.9878L13.2281 21.98C10.6961 18.6379 10.6956 13.9837 13.2265 10.641L13.2281 10.639L14.0394 9.55709L16.3758 6.52844C16.4112 6.48089 16.4475 6.43373 16.4846 6.38697C17.5944 4.84975 19.4388 4 21.2633 4H26.5109ZM28.1862 6.4111C28.7372 6.726 29.2053 7.07086 29.5337 7.49896L29.5191 7.51045L29.6192 7.64017C30.6631 9.05028 30.6557 11.0297 29.597 12.4317C28.6629 11.862 27.5521 11.5093 26.4205 11.5093H21.1728C20.0505 11.5093 18.9056 11.8099 17.9317 12.4333C17.4488 11.7462 17.1966 10.8772 17.1966 10.0667C17.1966 9.25167 17.4529 8.43472 17.9703 7.73584L18.0853 7.5867L18.096 7.57171C18.7975 6.58966 20.0203 6 21.2633 6H26.5109C27.1718 6 27.7209 6.14525 28.1862 6.4111ZM19.1611 14.0266L23.7614 19.9687L28.3614 14.0271C27.7627 13.7019 27.0831 13.5093 26.4205 13.5093H21.1728C20.4536 13.5093 19.7535 13.6876 19.1611 14.0266ZM28.5835 26.0871L25.0309 21.5961L31.097 13.7607C31.7224 12.9766 32.1221 12.0671 32.2961 11.1228L32.7709 11.7559C34.7612 14.3831 34.7623 18.049 32.7741 20.6774L28.5835 26.0871ZM19.0129 29.3185L12.0002 38.2918L16.3786 41.6087L22.5244 33.7729L19.0129 29.3185ZM16.4962 13.8515C15.8744 13.0717 15.4803 12.14 15.3041 11.2043L14.8252 11.8429L14.8223 11.8467C12.8328 14.4728 12.8309 18.1368 14.8166 20.7648L24.5834 33.1543L31.1609 41.5406L35.2269 37.8792L27.8075 28.3299L23.0123 22.2681L16.4962 13.8515Z" fill="black"/>
</svg>
